<svg xmlns="http://www.w3.org/2000/svg" viewBox="0 0 460 360" width="460" height="360">
  <style>
    text { font-family: Inter, -apple-system, sans-serif; }
    .axis-label { font-size: 11px; fill: #666; }
    .axis-title { font-size: 12px; fill: #444; font-weight: 500; }
    .eq-text { font-size: 11px; fill: #666; font-style: italic; }
    .grid { stroke: #e0e0e0; stroke-width: 0.5; }
    .axis-line { stroke: #999; stroke-width: 1; }
    @media (prefers-color-scheme: dark) {
      .axis-label { fill: #aaa; }
      .axis-title { fill: #ccc; }
      .eq-text { fill: #aaa; }
      .grid { stroke: #333; }
      .axis-line { stroke: #555; }
      circle { fill: #ccc; }
    }
  </style>

  <!-- Axes -->
  <line x1="60" y1="300" x2="400" y2="300" class="axis-line"/>
  <line x1="60" y1="20" x2="60" y2="300" class="axis-line"/>

  <!-- Y grid -->
  <line x1="60" y1="244" x2="400" y2="244" class="grid"/>
  <line x1="60" y1="188" x2="400" y2="188" class="grid"/>
  <line x1="60" y1="132" x2="400" y2="132" class="grid"/>
  <line x1="60" y1="76" x2="400" y2="76" class="grid"/>
  <line x1="60" y1="20" x2="400" y2="20" class="grid"/>

  <!-- Y labels -->
  <text x="52" y="304" text-anchor="end" class="axis-label">0</text>
  <text x="52" y="248" text-anchor="end" class="axis-label">2</text>
  <text x="52" y="192" text-anchor="end" class="axis-label">4</text>
  <text x="52" y="136" text-anchor="end" class="axis-label">6</text>
  <text x="52" y="80" text-anchor="end" class="axis-label">8</text>
  <text x="52" y="24" text-anchor="end" class="axis-label">10</text>

  <!-- Y title -->
  <text x="14" y="160" text-anchor="middle" class="axis-title" transform="rotate(-90, 14, 160)">Obtained Rating</text>

  <!-- X grid -->
  <line x1="128" y1="20" x2="128" y2="300" class="grid"/>
  <line x1="196" y1="20" x2="196" y2="300" class="grid"/>
  <line x1="264" y1="20" x2="264" y2="300" class="grid"/>
  <line x1="332" y1="20" x2="332" y2="300" class="grid"/>
  <line x1="400" y1="20" x2="400" y2="300" class="grid"/>

  <!-- X labels -->
  <text x="60" y="318" text-anchor="middle" class="axis-label">0</text>
  <text x="128" y="318" text-anchor="middle" class="axis-label">1</text>
  <text x="196" y="318" text-anchor="middle" class="axis-label">2</text>
  <text x="264" y="318" text-anchor="middle" class="axis-label">3</text>
  <text x="332" y="318" text-anchor="middle" class="axis-label">4</text>
  <text x="400" y="318" text-anchor="middle" class="axis-label">5</text>

  <!-- X title -->
  <text x="230" y="345" text-anchor="middle" class="axis-title">D Value</text>

  <!-- Scatter points -->
    <circle cx="284.8" cy="211.8" r="2.5" fill="currentColor" opacity="0.7"/>
    <circle cx="151.7" cy="109.7" r="2.5" fill="currentColor" opacity="0.7"/>
    <circle cx="315.8" cy="272.0" r="2.5" fill="currentColor" opacity="0.7"/>
    <circle cx="108.2" cy="112.3" r="2.5" fill="currentColor" opacity="0.7"/>
    <circle cx="215.2" cy="157.6" r="2.5" fill="currentColor" opacity="0.7"/>
    <circle cx="241.9" cy="194.8" r="2.5" fill="currentColor" opacity="0.7"/>
    <circle cx="88.9" cy="34.0" r="2.5" fill="currentColor" opacity="0.7"/>
    <circle cx="254.6" cy="173.9" r="2.5" fill="currentColor" opacity="0.7"/>
    <circle cx="150.9" cy="150.8" r="2.5" fill="currentColor" opacity="0.7"/>
    <circle cx="82.5" cy="58.5" r="2.5" fill="currentColor" opacity="0.7"/>
    <circle cx="337.9" cy="272.0" r="2.5" fill="currentColor" opacity="0.7"/>
    <circle cx="130.1" cy="111.3" r="2.5" fill="currentColor" opacity="0.7"/>
    <circle cx="386.3" cy="272.0" r="2.5" fill="currentColor" opacity="0.7"/>
    <circle cx="111.3" cy="58.8" r="2.5" fill="currentColor" opacity="0.7"/>
    <circle cx="351.3" cy="272.0" r="2.5" fill="currentColor" opacity="0.7"/>
    <circle cx="313.6" cy="272.0" r="2.5" fill="currentColor" opacity="0.7"/>
    <circle cx="251.8" cy="182.0" r="2.5" fill="currentColor" opacity="0.7"/>
    <circle cx="256.8" cy="214.5" r="2.5" fill="currentColor" opacity="0.7"/>
    <circle cx="345.5" cy="272.0" r="2.5" fill="currentColor" opacity="0.7"/>
    <circle cx="264.9" cy="250.7" r="2.5" fill="currentColor" opacity="0.7"/>
    <circle cx="305.6" cy="229.1" r="2.5" fill="currentColor" opacity="0.7"/>
    <circle cx="172.9" cy="129.5" r="2.5" fill="currentColor" opacity="0.7"/>
    <circle cx="105.9" cy="60.8" r="2.5" fill="currentColor" opacity="0.7"/>
    <circle cx="169.2" cy="119.4" r="2.5" fill="currentColor" opacity="0.7"/>
    <circle cx="283.6" cy="246.8" r="2.5" fill="currentColor" opacity="0.7"/>
    <circle cx="147.4" cy="90.1" r="2.5" fill="currentColor" opacity="0.7"/>
    <circle cx="165.7" cy="93.8" r="2.5" fill="currentColor" opacity="0.7"/>
    <circle cx="275.1" cy="238.6" r="2.5" fill="currentColor" opacity="0.7"/>
    <circle cx="135.1" cy="97.0" r="2.5" fill="currentColor" opacity="0.7"/>
    <circle cx="201.7" cy="177.5" r="2.5" fill="currentColor" opacity="0.7"/>
    <circle cx="396.7" cy="272.0" r="2.5" fill="currentColor" opacity="0.7"/>
    <circle cx="299.2" cy="266.8" r="2.5" fill="currentColor" opacity="0.7"/>
    <circle cx="349.8" cy="271.2" r="2.5" fill="currentColor" opacity="0.7"/>
    <circle cx="90.7" cy="61.9" r="2.5" fill="currentColor" opacity="0.7"/>
    <circle cx="181.2" cy="144.9" r="2.5" fill="currentColor" opacity="0.7"/>
    <circle cx="381.8" cy="272.0" r="2.5" fill="currentColor" opacity="0.7"/>
    <circle cx="360.5" cy="272.0" r="2.5" fill="currentColor" opacity="0.7"/>
    <circle cx="206.8" cy="133.5" r="2.5" fill="currentColor" opacity="0.7"/>
    <circle cx="372.7" cy="272.0" r="2.5" fill="currentColor" opacity="0.7"/>
    <circle cx="159.2" cy="115.7" r="2.5" fill="currentColor" opacity="0.7"/>
    <circle cx="259.8" cy="215.4" r="2.5" fill="currentColor" opacity="0.7"/>
    <circle cx="367.3" cy="250.6" r="2.5" fill="currentColor" opacity="0.7"/>
    <circle cx="208.0" cy="151.7" r="2.5" fill="currentColor" opacity="0.7"/>
    <circle cx="243.2" cy="113.5" r="2.5" fill="currentColor" opacity="0.7"/>
    <circle cx="109.5" cy="54.5" r="2.5" fill="currentColor" opacity="0.7"/>
    <circle cx="280.9" cy="225.4" r="2.5" fill="currentColor" opacity="0.7"/>
    <circle cx="333.5" cy="272.0" r="2.5" fill="currentColor" opacity="0.7"/>
    <circle cx="202.4" cy="158.9" r="2.5" fill="currentColor" opacity="0.7"/>
    <circle cx="398.8" cy="272.0" r="2.5" fill="currentColor" opacity="0.7"/>
    <circle cx="355.5" cy="272.0" r="2.5" fill="currentColor" opacity="0.7"/>
    <circle cx="84.1" cy="43.0" r="2.5" fill="currentColor" opacity="0.7"/>
    <circle cx="252.0" cy="243.9" r="2.5" fill="currentColor" opacity="0.7"/>
    <circle cx="165.7" cy="135.1" r="2.5" fill="currentColor" opacity="0.7"/>
    <circle cx="219.4" cy="188.1" r="2.5" fill="currentColor" opacity="0.7"/>
    <circle cx="225.4" cy="134.7" r="2.5" fill="currentColor" opacity="0.7"/>
    <circle cx="164.6" cy="141.0" r="2.5" fill="currentColor" opacity="0.7"/>
    <circle cx="240.4" cy="172.7" r="2.5" fill="currentColor" opacity="0.7"/>
    <circle cx="358.6" cy="229.0" r="2.5" fill="currentColor" opacity="0.7"/>
    <circle cx="175.8" cy="159.7" r="2.5" fill="currentColor" opacity="0.7"/>
    <circle cx="129.2" cy="115.0" r="2.5" fill="currentColor" opacity="0.7"/>
    <circle cx="324.1" cy="272.0" r="2.5" fill="currentColor" opacity="0.7"/>
    <circle cx="249.9" cy="215.4" r="2.5" fill="currentColor" opacity="0.7"/>
    <circle cx="80.6" cy="34.0" r="2.5" fill="currentColor" opacity="0.7"/>
    <circle cx="377.3" cy="272.0" r="2.5" fill="currentColor" opacity="0.7"/>
    <circle cx="361.2" cy="270.0" r="2.5" fill="currentColor" opacity="0.7"/>
    <circle cx="98.9" cy="72.7" r="2.5" fill="currentColor" opacity="0.7"/>
    <circle cx="361.0" cy="270.4" r="2.5" fill="currentColor" opacity="0.7"/>
    <circle cx="235.7" cy="196.4" r="2.5" fill="currentColor" opacity="0.7"/>
    <circle cx="102.5" cy="55.2" r="2.5" fill="currentColor" opacity="0.7"/>
    <circle cx="121.4" cy="122.7" r="2.5" fill="currentColor" opacity="0.7"/>
    <circle cx="232.3" cy="208.8" r="2.5" fill="currentColor" opacity="0.7"/>
    <circle cx="359.2" cy="272.0" r="2.5" fill="currentColor" opacity="0.7"/>
    <circle cx="215.6" cy="167.9" r="2.5" fill="currentColor" opacity="0.7"/>
    <circle cx="313.7" cy="221.4" r="2.5" fill="currentColor" opacity="0.7"/>
    <circle cx="144.7" cy="136.5" r="2.5" fill="currentColor" opacity="0.7"/>
    <circle cx="288.1" cy="158.0" r="2.5" fill="currentColor" opacity="0.7"/>
    <circle cx="220.4" cy="192.3" r="2.5" fill="currentColor" opacity="0.7"/>
    <circle cx="152.2" cy="114.8" r="2.5" fill="currentColor" opacity="0.7"/>
    <circle cx="188.5" cy="165.5" r="2.5" fill="currentColor" opacity="0.7"/>
    <circle cx="150.8" cy="121.5" r="2.5" fill="currentColor" opacity="0.7"/>
    <circle cx="103.1" cy="71.1" r="2.5" fill="currentColor" opacity="0.7"/>
    <circle cx="369.8" cy="272.0" r="2.5" fill="currentColor" opacity="0.7"/>
    <circle cx="355.1" cy="260.5" r="2.5" fill="currentColor" opacity="0.7"/>
    <circle cx="294.2" cy="230.5" r="2.5" fill="currentColor" opacity="0.7"/>
    <circle cx="148.9" cy="70.1" r="2.5" fill="currentColor" opacity="0.7"/>
    <circle cx="262.9" cy="171.5" r="2.5" fill="currentColor" opacity="0.7"/>
    <circle cx="231.5" cy="179.4" r="2.5" fill="currentColor" opacity="0.7"/>
    <circle cx="141.3" cy="146.4" r="2.5" fill="currentColor" opacity="0.7"/>
    <circle cx="111.4" cy="92.4" r="2.5" fill="currentColor" opacity="0.7"/>
    <circle cx="229.7" cy="176.6" r="2.5" fill="currentColor" opacity="0.7"/>
    <circle cx="313.4" cy="272.0" r="2.5" fill="currentColor" opacity="0.7"/>
    <circle cx="111.9" cy="133.2" r="2.5" fill="currentColor" opacity="0.7"/>
    <circle cx="209.1" cy="196.1" r="2.5" fill="currentColor" opacity="0.7"/>
    <circle cx="159.9" cy="79.0" r="2.5" fill="currentColor" opacity="0.7"/>
    <circle cx="141.2" cy="126.7" r="2.5" fill="currentColor" opacity="0.7"/>
    <circle cx="169.4" cy="122.8" r="2.5" fill="currentColor" opacity="0.7"/>
    <circle cx="160.2" cy="97.6" r="2.5" fill="currentColor" opacity="0.7"/>
    <circle cx="355.7" cy="272.0" r="2.5" fill="currentColor" opacity="0.7"/>
    <circle cx="256.3" cy="118.8" r="2.5" fill="currentColor" opacity="0.7"/>
    <circle cx="347.6" cy="243.0" r="2.5" fill="currentColor" opacity="0.7"/>
    <circle cx="390.1" cy="251.6" r="2.5" fill="currentColor" opacity="0.7"/>
    <circle cx="133.6" cy="115.2" r="2.5" fill="currentColor" opacity="0.7"/>
    <circle cx="235.6" cy="187.1" r="2.5" fill="currentColor" opacity="0.7"/>
    <circle cx="99.1" cy="34.0" r="2.5" fill="currentColor" opacity="0.7"/>
    <circle cx="201.5" cy="142.7" r="2.5" fill="currentColor" opacity="0.7"/>
    <circle cx="331.0" cy="264.8" r="2.5" fill="currentColor" opacity="0.7"/>
    <circle cx="225.8" cy="240.4" r="2.5" fill="currentColor" opacity="0.7"/>
    <circle cx="398.5" cy="269.9" r="2.5" fill="currentColor" opacity="0.7"/>
    <circle cx="258.0" cy="214.2" r="2.5" fill="currentColor" opacity="0.7"/>
    <circle cx="175.2" cy="151.3" r="2.5" fill="currentColor" opacity="0.7"/>
    <circle cx="390.0" cy="272.0" r="2.5" fill="currentColor" opacity="0.7"/>
    <circle cx="319.5" cy="270.7" r="2.5" fill="currentColor" opacity="0.7"/>
    <circle cx="98.7" cy="79.3" r="2.5" fill="currentColor" opacity="0.7"/>
    <circle cx="352.9" cy="272.0" r="2.5" fill="currentColor" opacity="0.7"/>
    <circle cx="130.7" cy="80.2" r="2.5" fill="currentColor" opacity="0.7"/>
    <circle cx="139.8" cy="102.7" r="2.5" fill="currentColor" opacity="0.7"/>
    <circle cx="270.6" cy="229.4" r="2.5" fill="currentColor" opacity="0.7"/>
    <circle cx="118.7" cy="93.2" r="2.5" fill="currentColor" opacity="0.7"/>
    <circle cx="364.9" cy="272.0" r="2.5" fill="currentColor" opacity="0.7"/>
    <circle cx="278.4" cy="193.1" r="2.5" fill="currentColor" opacity="0.7"/>
    <circle cx="214.4" cy="200.7" r="2.5" fill="currentColor" opacity="0.7"/>
    <circle cx="379.1" cy="272.0" r="2.5" fill="currentColor" opacity="0.7"/>
    <circle cx="145.7" cy="110.4" r="2.5" fill="currentColor" opacity="0.7"/>
    <circle cx="206.9" cy="185.6" r="2.5" fill="currentColor" opacity="0.7"/>
    <circle cx="295.1" cy="245.9" r="2.5" fill="currentColor" opacity="0.7"/>
    <circle cx="320.7" cy="235.6" r="2.5" fill="currentColor" opacity="0.7"/>
    <circle cx="103.6" cy="146.9" r="2.5" fill="currentColor" opacity="0.7"/>
    <circle cx="398.8" cy="272.0" r="2.5" fill="currentColor" opacity="0.7"/>
    <circle cx="103.8" cy="55.1" r="2.5" fill="currentColor" opacity="0.7"/>
    <circle cx="378.7" cy="270.5" r="2.5" fill="currentColor" opacity="0.7"/>

  <!-- Polynomial curve: y = 0.2x² - 3.1x + 10.5 -->
  <polyline fill="none" stroke="#888" stroke-width="1.5" opacity="0.6"
    points="
      73.6,23.1 80.4,31.5 87.2,39.8 94.0,48.0 100.8,56.1
      107.6,64.0 114.4,71.9 121.2,79.6 128.0,87.2 134.8,94.7
      141.6,102.1 148.4,109.4 155.2,116.5 162.0,123.6 168.8,130.5
      175.6,137.4 182.4,144.1 189.2,150.7 196.0,157.2 202.8,163.6
      209.6,169.9 216.4,176.0 223.2,182.1 230.0,188.0 236.8,193.8
      243.6,199.5 250.4,205.1 257.2,210.6 264.0,216.0 270.8,221.3
      277.6,226.4 284.4,231.5 291.2,236.4 298.0,241.2 304.8,245.9
      311.6,250.5 318.4,255.0 325.2,259.3 332.0,263.6 338.8,267.7
      345.6,271.8 352.4,275.7 359.2,279.5 366.0,283.2 372.8,286.8
      379.6,290.3 386.4,293.6 393.2,296.9 400.0,300.0
    "/>

  <!-- Equation label -->
  <text x="260" y="60" class="eq-text">y = 0.2x² − 3.1x + 10.5</text>
</svg>
