<svg xmlns="http://www.w3.org/2000/svg" viewBox="0 0 460 360" width="460" height="360">
  <style>
    text { font-family: Inter, -apple-system, sans-serif; }
    .axis-label { font-size: 11px; fill: #666; }
    .axis-title { font-size: 12px; fill: #444; font-weight: 500; }
    .eq-text { font-size: 11px; fill: #666; font-style: italic; }
    .grid { stroke: #e0e0e0; stroke-width: 0.5; }
    .axis-line { stroke: #999; stroke-width: 1; }
    @media (prefers-color-scheme: dark) {
      .axis-label { fill: #aaa; }
      .axis-title { fill: #ccc; }
      .eq-text { fill: #aaa; }
      .grid { stroke: #333; }
      .axis-line { stroke: #555; }
      circle { fill: #ccc; }
    }
  </style>

  <!-- Axes -->
  <line x1="60" y1="300" x2="400" y2="300" class="axis-line"/>
  <line x1="60" y1="20" x2="60" y2="300" class="axis-line"/>

  <!-- Y grid -->
  <line x1="60" y1="244" x2="400" y2="244" class="grid"/>
  <line x1="60" y1="188" x2="400" y2="188" class="grid"/>
  <line x1="60" y1="132" x2="400" y2="132" class="grid"/>
  <line x1="60" y1="76" x2="400" y2="76" class="grid"/>
  <line x1="60" y1="20" x2="400" y2="20" class="grid"/>

  <!-- Y labels -->
  <text x="52" y="304" text-anchor="end" class="axis-label">0</text>
  <text x="52" y="248" text-anchor="end" class="axis-label">2</text>
  <text x="52" y="192" text-anchor="end" class="axis-label">4</text>
  <text x="52" y="136" text-anchor="end" class="axis-label">6</text>
  <text x="52" y="80" text-anchor="end" class="axis-label">8</text>
  <text x="52" y="24" text-anchor="end" class="axis-label">10</text>

  <!-- Y title -->
  <text x="14" y="160" text-anchor="middle" class="axis-title" transform="rotate(-90, 14, 160)">Obtained Rating</text>

  <!-- X grid -->
  <line x1="128" y1="20" x2="128" y2="300" class="grid"/>
  <line x1="196" y1="20" x2="196" y2="300" class="grid"/>
  <line x1="264" y1="20" x2="264" y2="300" class="grid"/>
  <line x1="332" y1="20" x2="332" y2="300" class="grid"/>
  <line x1="400" y1="20" x2="400" y2="300" class="grid"/>

  <!-- X labels -->
  <text x="60" y="318" text-anchor="middle" class="axis-label">0</text>
  <text x="128" y="318" text-anchor="middle" class="axis-label">1</text>
  <text x="196" y="318" text-anchor="middle" class="axis-label">2</text>
  <text x="264" y="318" text-anchor="middle" class="axis-label">3</text>
  <text x="332" y="318" text-anchor="middle" class="axis-label">4</text>
  <text x="400" y="318" text-anchor="middle" class="axis-label">5</text>

  <!-- X title -->
  <text x="230" y="345" text-anchor="middle" class="axis-title">D Value</text>

  <!-- Data points (104 points eyeballed from Moore & Tan 2003) -->
  <circle cx="94.0" cy="112.4" r="3" fill="currentColor" opacity="0.8"/>
  <circle cx="100.8" cy="98.4" r="3" fill="currentColor" opacity="0.8"/>
  <circle cx="100.8" cy="92.8" r="3" fill="currentColor" opacity="0.8"/>
  <circle cx="107.6" cy="76.0" r="3" fill="currentColor" opacity="0.8"/>
  <circle cx="107.6" cy="104.0" r="3" fill="currentColor" opacity="0.8"/>
  <circle cx="114.4" cy="76.0" r="3" fill="currentColor" opacity="0.8"/>
  <circle cx="114.4" cy="90.0" r="3" fill="currentColor" opacity="0.8"/>
  <circle cx="114.4" cy="137.6" r="3" fill="currentColor" opacity="0.8"/>
  <circle cx="121.2" cy="53.6" r="3" fill="currentColor" opacity="0.8"/>
  <circle cx="121.2" cy="76.0" r="3" fill="currentColor" opacity="0.8"/>
  <circle cx="121.2" cy="98.4" r="3" fill="currentColor" opacity="0.8"/>
  <circle cx="121.2" cy="132.0" r="3" fill="currentColor" opacity="0.8"/>
  <circle cx="128.0" cy="62.0" r="3" fill="currentColor" opacity="0.8"/>
  <circle cx="128.0" cy="76.0" r="3" fill="currentColor" opacity="0.8"/>
  <circle cx="128.0" cy="90.0" r="3" fill="currentColor" opacity="0.8"/>
  <circle cx="128.0" cy="109.6" r="3" fill="currentColor" opacity="0.8"/>
  <circle cx="128.0" cy="132.0" r="3" fill="currentColor" opacity="0.8"/>
  <circle cx="128.0" cy="154.4" r="3" fill="currentColor" opacity="0.8"/>
  <circle cx="134.8" cy="76.0" r="3" fill="currentColor" opacity="0.8"/>
  <circle cx="134.8" cy="81.6" r="3" fill="currentColor" opacity="0.8"/>
  <circle cx="134.8" cy="104.0" r="3" fill="currentColor" opacity="0.8"/>
  <circle cx="134.8" cy="118.0" r="3" fill="currentColor" opacity="0.8"/>
  <circle cx="134.8" cy="137.6" r="3" fill="currentColor" opacity="0.8"/>
  <circle cx="134.8" cy="146.0" r="3" fill="currentColor" opacity="0.8"/>
  <circle cx="141.6" cy="76.0" r="3" fill="currentColor" opacity="0.8"/>
  <circle cx="141.6" cy="90.0" r="3" fill="currentColor" opacity="0.8"/>
  <circle cx="141.6" cy="126.4" r="3" fill="currentColor" opacity="0.8"/>
  <circle cx="141.6" cy="137.6" r="3" fill="currentColor" opacity="0.8"/>
  <circle cx="141.6" cy="160.0" r="3" fill="currentColor" opacity="0.8"/>
  <circle cx="148.4" cy="104.0" r="3" fill="currentColor" opacity="0.8"/>
  <circle cx="148.4" cy="118.0" r="3" fill="currentColor" opacity="0.8"/>
  <circle cx="148.4" cy="132.0" r="3" fill="currentColor" opacity="0.8"/>
  <circle cx="148.4" cy="146.0" r="3" fill="currentColor" opacity="0.8"/>
  <circle cx="148.4" cy="160.0" r="3" fill="currentColor" opacity="0.8"/>
  <circle cx="155.2" cy="109.6" r="3" fill="currentColor" opacity="0.8"/>
  <circle cx="155.2" cy="126.4" r="3" fill="currentColor" opacity="0.8"/>
  <circle cx="155.2" cy="146.0" r="3" fill="currentColor" opacity="0.8"/>
  <circle cx="155.2" cy="160.0" r="3" fill="currentColor" opacity="0.8"/>
  <circle cx="155.2" cy="174.0" r="3" fill="currentColor" opacity="0.8"/>
  <circle cx="162.0" cy="118.0" r="3" fill="currentColor" opacity="0.8"/>
  <circle cx="162.0" cy="132.0" r="3" fill="currentColor" opacity="0.8"/>
  <circle cx="162.0" cy="146.0" r="3" fill="currentColor" opacity="0.8"/>
  <circle cx="162.0" cy="160.0" r="3" fill="currentColor" opacity="0.8"/>
  <circle cx="162.0" cy="165.6" r="3" fill="currentColor" opacity="0.8"/>
  <circle cx="168.8" cy="132.0" r="3" fill="currentColor" opacity="0.8"/>
  <circle cx="168.8" cy="146.0" r="3" fill="currentColor" opacity="0.8"/>
  <circle cx="168.8" cy="154.4" r="3" fill="currentColor" opacity="0.8"/>
  <circle cx="168.8" cy="174.0" r="3" fill="currentColor" opacity="0.8"/>
  <circle cx="168.8" cy="188.0" r="3" fill="currentColor" opacity="0.8"/>
  <circle cx="175.6" cy="137.6" r="3" fill="currentColor" opacity="0.8"/>
  <circle cx="175.6" cy="154.4" r="3" fill="currentColor" opacity="0.8"/>
  <circle cx="175.6" cy="165.6" r="3" fill="currentColor" opacity="0.8"/>
  <circle cx="175.6" cy="182.4" r="3" fill="currentColor" opacity="0.8"/>
  <circle cx="182.4" cy="146.0" r="3" fill="currentColor" opacity="0.8"/>
  <circle cx="182.4" cy="160.0" r="3" fill="currentColor" opacity="0.8"/>
  <circle cx="182.4" cy="174.0" r="3" fill="currentColor" opacity="0.8"/>
  <circle cx="182.4" cy="193.6" r="3" fill="currentColor" opacity="0.8"/>
  <circle cx="189.2" cy="160.0" r="3" fill="currentColor" opacity="0.8"/>
  <circle cx="189.2" cy="174.0" r="3" fill="currentColor" opacity="0.8"/>
  <circle cx="189.2" cy="188.0" r="3" fill="currentColor" opacity="0.8"/>
  <circle cx="189.2" cy="202.0" r="3" fill="currentColor" opacity="0.8"/>
  <circle cx="196.0" cy="174.0" r="3" fill="currentColor" opacity="0.8"/>
  <circle cx="196.0" cy="188.0" r="3" fill="currentColor" opacity="0.8"/>
  <circle cx="196.0" cy="202.0" r="3" fill="currentColor" opacity="0.8"/>
  <circle cx="196.0" cy="216.0" r="3" fill="currentColor" opacity="0.8"/>
  <circle cx="202.8" cy="182.4" r="3" fill="currentColor" opacity="0.8"/>
  <circle cx="202.8" cy="193.6" r="3" fill="currentColor" opacity="0.8"/>
  <circle cx="202.8" cy="210.4" r="3" fill="currentColor" opacity="0.8"/>
  <circle cx="209.6" cy="188.0" r="3" fill="currentColor" opacity="0.8"/>
  <circle cx="209.6" cy="202.0" r="3" fill="currentColor" opacity="0.8"/>
  <circle cx="209.6" cy="216.0" r="3" fill="currentColor" opacity="0.8"/>
  <circle cx="216.4" cy="193.6" r="3" fill="currentColor" opacity="0.8"/>
  <circle cx="216.4" cy="210.4" r="3" fill="currentColor" opacity="0.8"/>
  <circle cx="230.0" cy="202.0" r="3" fill="currentColor" opacity="0.8"/>
  <circle cx="230.0" cy="216.0" r="3" fill="currentColor" opacity="0.8"/>
  <circle cx="230.0" cy="210.4" r="3" fill="currentColor" opacity="0.8"/>
  <circle cx="236.8" cy="210.4" r="3" fill="currentColor" opacity="0.8"/>
  <circle cx="236.8" cy="221.6" r="3" fill="currentColor" opacity="0.8"/>
  <circle cx="243.6" cy="216.0" r="3" fill="currentColor" opacity="0.8"/>
  <circle cx="243.6" cy="216.0" r="3" fill="currentColor" opacity="0.8"/>
  <circle cx="250.4" cy="216.0" r="3" fill="currentColor" opacity="0.8"/>
  <circle cx="250.4" cy="230.0" r="3" fill="currentColor" opacity="0.8"/>
  <circle cx="264.0" cy="216.0" r="3" fill="currentColor" opacity="0.8"/>
  <circle cx="264.0" cy="221.6" r="3" fill="currentColor" opacity="0.8"/>
  <circle cx="264.0" cy="210.4" r="3" fill="currentColor" opacity="0.8"/>
  <circle cx="270.8" cy="221.6" r="3" fill="currentColor" opacity="0.8"/>
  <circle cx="270.8" cy="216.0" r="3" fill="currentColor" opacity="0.8"/>
  <circle cx="277.6" cy="230.0" r="3" fill="currentColor" opacity="0.8"/>
  <circle cx="277.6" cy="216.0" r="3" fill="currentColor" opacity="0.8"/>
  <circle cx="284.4" cy="230.0" r="3" fill="currentColor" opacity="0.8"/>
  <circle cx="284.4" cy="216.0" r="3" fill="currentColor" opacity="0.8"/>
  <circle cx="298.0" cy="238.4" r="3" fill="currentColor" opacity="0.8"/>
  <circle cx="298.0" cy="230.0" r="3" fill="currentColor" opacity="0.8"/>
  <circle cx="298.0" cy="216.0" r="3" fill="currentColor" opacity="0.8"/>
  <circle cx="318.4" cy="244.0" r="3" fill="currentColor" opacity="0.8"/>
  <circle cx="318.4" cy="230.0" r="3" fill="currentColor" opacity="0.8"/>
  <circle cx="332.0" cy="249.6" r="3" fill="currentColor" opacity="0.8"/>
  <circle cx="332.0" cy="244.0" r="3" fill="currentColor" opacity="0.8"/>
  <circle cx="345.6" cy="258.0" r="3" fill="currentColor" opacity="0.8"/>
  <circle cx="366.0" cy="244.0" r="3" fill="currentColor" opacity="0.8"/>
  <circle cx="366.0" cy="258.0" r="3" fill="currentColor" opacity="0.8"/>
  <circle cx="379.6" cy="249.6" r="3" fill="currentColor" opacity="0.8"/>
  <circle cx="386.4" cy="258.0" r="3" fill="currentColor" opacity="0.8"/>
  <circle cx="400.0" cy="266.4" r="3" fill="currentColor" opacity="0.8"/>

  <!-- Polynomial curve: y = 0.2x² - 3.1x + 10.5 -->
  <polyline fill="none" stroke="#888" stroke-width="1.5" opacity="0.6"
    points="
      73.6,23.1 80.4,31.5 87.2,39.8 94.0,48.0 100.8,56.1
      107.6,64.0 114.4,71.9 121.2,79.6 128.0,87.2 134.8,94.7
      141.6,102.1 148.4,109.4 155.2,116.5 162.0,123.6 168.8,130.5
      175.6,137.4 182.4,144.1 189.2,150.7 196.0,157.2 202.8,163.6
      209.6,169.9 216.4,176.0 223.2,182.1 230.0,188.0 236.8,193.8
      243.6,199.5 250.4,205.1 257.2,210.6 264.0,216.0 270.8,221.3
      277.6,226.4 284.4,231.5 291.2,236.4 298.0,241.2 304.8,245.9
      311.6,250.5 318.4,255.0 325.2,259.3 332.0,263.6 338.8,267.7
      345.6,271.8 352.4,275.7 359.2,279.5 366.0,283.2 372.8,286.8
      379.6,290.3 386.4,293.6 393.2,296.9 400.0,300.0
    "/>

  <!-- Equation label -->
  <text x="260" y="60" class="eq-text">y = 0.2x² − 3.1x + 10.5</text>
</svg>
