<?xml version="1.0" encoding="UTF-8"?>
<svg xmlns="http://www.w3.org/2000/svg" viewBox="0 0 75.3103 72.4382">
  <defs>
    <linearGradient id="hero-gradient" x1="37.6551" y1="871.9674" x2="37.6551" y2="944.4056" gradientTransform="translate(0 -871.9674)" gradientUnits="userSpaceOnUse">
      <stop offset="0" stop-color="#7937ce" />
      <stop offset="1" stop-color="#dabeff" />
    </linearGradient>
  </defs>
  <path fill="url(#hero-gradient)" fill-rule="evenodd" d="M22.9374,45.45v24.7256c0,2.3225,3.0836,3.1329,4.2251,1.1106l2.8816-5.1051c4.2624-7.551,6.7906-15.7551,7.6112-24.0713.8206,8.3162,3.3488,16.5203,7.6112,24.0713l2.8815,5.1051c1.1415,2.0224,4.2251,1.212,4.2251-1.1106v-24.7248c.9005,4.4389,2.4468,8.7871,4.6474,12.9032l2.3328,4.3633c.9529,1.7824,3.6555,1.1053,3.6555-.9159V9.8341c0-1.623-2.0891-2.2816-3.0199-.9522-3.799,5.426-6.3457,11.4738-7.6158,17.739V2.1509c0-2.0976-2.699-2.9502-3.904-1.2333-6.1772,8.8016-9.7987,18.8639-10.8138,29.1549-1.0151-10.291-4.6366-20.3533-10.8138-29.1549-1.205-1.717-3.9041-.8643-3.9041,1.2333v24.4709c-1.27-6.2655-3.8167-12.3136-7.6159-17.7398-.9308-1.3295-3.0199-.6708-3.0199.9522v51.9673c0,2.0212,2.7026,2.6982,3.6555.9159l2.3328-4.3633c2.2007-4.1163,3.747-8.4648,4.6476-12.904h-.0001ZM0,53.7062V18.3235c0-1.4553,1.8964-2.0146,2.6861-.7921,6.6523,10.2977,7.345,23.3507,1.82,34.2948l-1.3308,2.6361c-.7962,1.5772-3.1753,1.0107-3.1753-.7561ZM75.3103,53.7062V18.3235c0-1.4553-1.8963-2.0146-2.686-.7921-6.6522,10.2977-7.3449,23.3507-1.8203,34.2948l1.3313,2.6361c.7957,1.5772,3.175,1.0107,3.175-.7561Z" />
</svg>
